<?xml version="1.0" encoding="UTF-8"?> <svg xmlns="http://www.w3.org/2000/svg" id="Layer_1" version="1.1" viewBox="0 0 337.32 337.32"><defs><style> .st0 { fill: #263859; } </style></defs><path class="st0" d="M201.25,199.82l-36.64,36.64,34.42,34.42c-37.05,21.2-85.01,16.17-116.77-15.28l36.57-36.57c-37.77-38.04-37.7-99.49.24-137.42,37.9-37.9,99.28-38,137.33-.32l-36.58,36.58c14.16,14.26,22.92,31.81,26.43,50.17h52.49c-3.91-31.68-17.95-62.34-42.18-86.73l36.58-36.58c-58.28-58.01-152.54-57.94-210.71.24-58.14,58.14-58.25,152.34-.33,210.62l-36.58,36.58c58.28,58.01,152.54,57.94,210.72-.24,6.34-6.34,11.93-13.14,16.89-20.24l-.17-.17-71.7-71.7Z"></path></svg> 